<svg xmlns="http://www.w3.org/2000/svg" viewBox="0 0 1000 1000" width="1000" height="1000" role="img" aria-label="DotRot"><style>.bg-main{fill:#090909;}.stroke-main{stroke:#F4F1EA;stroke-width:6;fill:none;}.main-text{fill:#F4F1EA;font-family:monospace;font-weight:700;letter-spacing:1px;}.caption-text{fill:#8BE9FD;font-family:monospace;font-size:20px;letter-spacing:2px;}.footer-text{fill:#FFC94A;font-family:monospace;font-size:22px;letter-spacing:3px;}.outline-text{paint-order:stroke;stroke:#2A2418;stroke-width:8;stroke-linejoin:round;}</style><rect width="1000" height="1000" class="bg-main"/><g opacity="0.38" fill="#A78BFA"><circle cx="655" cy="518" r="6"/><circle cx="184" cy="267" r="5"/><circle cx="119" cy="474" r="6"/><circle cx="245" cy="440" r="7"/><circle cx="842" cy="703" r="6"/><circle cx="604" cy="164" r="4"/><circle cx="586" cy="183" r="3"/><circle cx="846" cy="458" r="4"/><circle cx="465" cy="686" r="3"/><circle cx="246" cy="233" r="4"/><circle cx="353" cy="729" r="3"/><circle cx="879" cy="638" r="4"/><circle cx="469" cy="741" r="7"/><circle cx="432" cy="485" r="3"/><circle cx="197" cy="660" r="3"/><circle cx="435" cy="741" r="5"/></g><rect x="52" y="52" width="896" height="896" rx="36" class="stroke-main"/><rect x="74" y="74" width="852" height="836" rx="28" stroke="#FFC94A" stroke-width="2" fill="none" opacity="0.55"/><g transform="translate(108 108)"><circle cx="0" cy="0" r="18" fill="none" stroke="#FFC94A" stroke-width="4"/><circle cx="42" cy="0" r="18" fill="none" stroke="#FFC94A" stroke-width="4"/><text x="84" y="8" fill="#F4F1EA" font-family="monospace" font-size="30" font-weight="900">DotRot</text></g><g transform="translate(740 90)"><rect x="0" y="0" width="170" height="44" rx="22" fill="#FFC94A"/><text x="85" y="28" text-anchor="middle" fill="#111111" font-family="monospace" font-size="18" font-weight="900">ON-CHAIN</text></g><text x="500" y="34" text-anchor="middle" class="footer-text">dotrot.dot.li</text><text x="500" y="484" text-anchor="middle" dominant-baseline="middle" class="main-text outline-text" font-size="110">gm ser</text><text x="500" y="875" text-anchor="middle" class="caption-text">randomly assigned chaos</text><text x="500" y="982" text-anchor="middle" class="footer-text">DOTROT</text><text x="76" y="982" text-anchor="start" class="footer-text">#0</text></svg>