<svg xmlns="http://www.w3.org/2000/svg" viewBox="0 0 1000 1000" width="1000" height="1000" role="img" aria-label="Giggles and Gags"><style>.bg-main{fill:#090909;}.stroke-main{stroke:#F4F1EA;stroke-width:6;fill:none;}.main-text{fill:#F4F1EA;font-family:monospace;font-weight:800;letter-spacing:0px;}.caption-text{fill:#8BE9FD;font-family:monospace;font-size:20px;letter-spacing:2px;}.footer-text{fill:#FFC94A;font-family:monospace;font-size:22px;letter-spacing:3px;}.outline-text{paint-order:stroke;stroke:#2A2418;stroke-width:8;stroke-linejoin:round;}</style><rect width="1000" height="1000" class="bg-main"/><g opacity="0.38" fill="#A78BFA"><circle cx="241" cy="719" r="7"/><circle cx="651" cy="395" r="7"/><circle cx="621" cy="810" r="8"/><circle cx="619" cy="234" r="5"/><circle cx="411" cy="353" r="8"/><circle cx="904" cy="163" r="7"/><circle cx="587" cy="143" r="5"/><circle cx="272" cy="782" r="7"/><circle cx="879" cy="530" r="6"/><circle cx="496" cy="532" r="6"/><circle cx="192" cy="777" r="7"/><circle cx="655" cy="446" r="8"/><circle cx="203" cy="385" r="4"/><circle cx="241" cy="359" r="3"/><circle cx="181" cy="159" r="5"/><circle cx="322" cy="289" r="7"/></g><rect x="52" y="52" width="896" height="896" rx="36" class="stroke-main"/><rect x="74" y="74" width="852" height="836" rx="28" stroke="#FFC94A" stroke-width="2" fill="none" opacity="0.55"/><g transform="translate(108 108)"><circle cx="0" cy="0" r="18" fill="none" stroke="#FFC94A" stroke-width="4"/><circle cx="42" cy="0" r="18" fill="none" stroke="#FFC94A" stroke-width="4"/><text x="84" y="8" fill="#F4F1EA" font-family="monospace" font-size="30" font-weight="900">GaG</text></g><g transform="translate(740 90)"><rect x="0" y="0" width="170" height="44" rx="22" fill="#FFC94A"/><text x="85" y="28" text-anchor="middle" fill="#111111" font-family="monospace" font-size="18" font-weight="900">POSTING</text></g><text x="500" y="34" text-anchor="middle" class="footer-text">gigglesandgags.eth</text><text x="500" y="448" text-anchor="middle" dominant-baseline="middle" class="main-text outline-text" font-size="52">this is a longer</text><text x="500" y="560" text-anchor="middle" dominant-baseline="middle" class="main-text outline-text" font-size="52">message for testing</text><text x="500" y="875" text-anchor="middle" class="caption-text">randomly assigned chaos</text><text x="500" y="982" text-anchor="middle" class="footer-text">GIGGLES AND GAGS</text><text x="76" y="982" text-anchor="start" class="footer-text">#1</text></svg>