<svg xmlns="http://www.w3.org/2000/svg" viewBox="0 0 1000 1000" width="1000" height="1000" role="img" aria-label="Giggles and Gags"><style>.bg-main{fill:#090909;}.stroke-main{stroke:#F4F1EA;stroke-width:6;fill:none;}.main-text{fill:#F4F1EA;font-family:monospace;font-weight:700;letter-spacing:1px;}.caption-text{fill:#8BE9FD;font-family:monospace;font-size:20px;letter-spacing:2px;}.footer-text{fill:#FFC94A;font-family:monospace;font-size:22px;letter-spacing:3px;}.outline-text{paint-order:stroke;stroke:#2A2418;stroke-width:8;stroke-linejoin:round;}</style><rect width="1000" height="1000" class="bg-main"/><g opacity="0.38" fill="#A78BFA"><circle cx="246" cy="639" r="6"/><circle cx="502" cy="610" r="6"/><circle cx="833" cy="269" r="6"/><circle cx="462" cy="424" r="4"/><circle cx="895" cy="829" r="3"/><circle cx="774" cy="672" r="8"/><circle cx="522" cy="131" r="6"/><circle cx="312" cy="687" r="8"/><circle cx="771" cy="462" r="6"/><circle cx="844" cy="461" r="6"/><circle cx="776" cy="586" r="6"/><circle cx="864" cy="304" r="8"/><circle cx="374" cy="310" r="6"/><circle cx="859" cy="177" r="7"/><circle cx="326" cy="452" r="4"/><circle cx="795" cy="351" r="8"/></g><rect x="56" y="56" width="888" height="888" rx="12" class="stroke-main"/><path d="M180 74H820" stroke="#FFC94A" stroke-width="8" opacity="0.8"/><path d="M180 908H820" stroke="#FFC94A" stroke-width="8" opacity="0.8"/><g transform="translate(108 108)"><circle cx="0" cy="0" r="18" fill="none" stroke="#FFC94A" stroke-width="4"/><circle cx="42" cy="0" r="18" fill="none" stroke="#FFC94A" stroke-width="4"/><text x="84" y="8" fill="#F4F1EA" font-family="monospace" font-size="30" font-weight="900">GaG</text></g><g transform="translate(740 90)"><rect x="0" y="0" width="170" height="44" rx="22" fill="#FFC94A"/><text x="85" y="28" text-anchor="middle" fill="#111111" font-family="monospace" font-size="18" font-weight="900">QUEUE MAXXED</text></g><text x="500" y="34" text-anchor="middle" class="footer-text">gigglesandgags.eth</text><text x="500" y="448" text-anchor="middle" dominant-baseline="middle" class="main-text outline-text" font-size="50">WIDE CHARACTERS:</text><text x="500" y="560" text-anchor="middle" dominant-baseline="middle" class="main-text outline-text" font-size="50">WMMM @@@</text><text x="500" y="875" text-anchor="middle" class="caption-text">randomly assigned chaos</text><text x="500" y="982" text-anchor="middle" class="footer-text">GIGGLES AND GAGS</text><text x="76" y="982" text-anchor="start" class="footer-text">#42</text></svg>